<svg width="32" height="32" viewBox="0 0 32 32" fill="none" xmlns="http://www.w3.org/2000/svg">
<path d="M12.0006 28H20.0006M24.0006 11.4667C24.0006 9.48638 23.1577 7.58721 21.6574 6.18694C20.1571 4.78666 18.1223 4 16.0006 4C13.8788 4 11.844 4.78666 10.3437 6.18694C8.84342 7.58721 8.00057 9.48638 8.00057 11.4667C8.00057 15.0483 7.09897 17.5781 6.03718 19.3154C5.00878 20.9982 4.49458 21.8395 4.5137 22.0581C4.53517 22.3036 4.58362 22.39 4.78194 22.5364C4.95845 22.6667 5.7974 22.6667 7.4753 22.6667H24.5258C26.2037 22.6667 27.0427 22.6667 27.2192 22.5364C27.4175 22.39 27.466 22.3036 27.4874 22.0581C27.5066 21.8395 26.9924 20.9982 25.964 19.3154C24.9022 17.5781 24.0006 15.0483 24.0006 11.4667Z" stroke="#101820" stroke-width="2.5" stroke-linecap="round" stroke-linejoin="round"/>
</svg>
