<svg width="25" height="24" viewBox="0 0 25 24" fill="none" xmlns="http://www.w3.org/2000/svg">
<path d="M8.82227 15.0009C8.82227 15.0009 10.4223 17.0009 12.8223 17.0009C15.2223 17.0009 16.8223 15.0009 16.8223 15.0009M3.82227 14.6009V12.131C3.82227 10.9823 3.82227 10.408 3.97032 9.87905C4.10147 9.41051 4.317 8.96983 4.60632 8.57866C4.93294 8.13706 5.38631 7.78444 6.29305 7.0792L8.89305 5.05697C10.2983 3.96396 11.001 3.41745 11.7769 3.20738C12.4615 3.02202 13.1831 3.02202 13.8677 3.20738C14.6435 3.41745 15.3462 3.96396 16.7515 5.05697L19.3515 7.0792C20.2582 7.78444 20.7116 8.13706 21.0382 8.57866C21.3275 8.96983 21.5431 9.41051 21.6742 9.87905C21.8223 10.408 21.8223 10.9823 21.8223 12.131V14.6009C21.8223 16.8411 21.8223 17.9612 21.3863 18.8169C21.0028 19.5695 20.3909 20.1814 19.6382 20.5649C18.7826 21.0009 17.6625 21.0009 15.4223 21.0009H10.2223C7.98206 21.0009 6.86195 21.0009 6.0063 20.5649C5.25366 20.1814 4.64173 19.5695 4.25824 18.8169C3.82227 17.9612 3.82227 16.8411 3.82227 14.6009Z" stroke="#1C2437" stroke-width="2" stroke-linecap="round" stroke-linejoin="round"/>
</svg>
