<svg width="25" height="24" viewBox="0 0 25 24" fill="none" xmlns="http://www.w3.org/2000/svg">
<path d="M9.82227 11V6C9.82227 4.34315 11.1654 3 12.8223 3C14.4791 3 15.8223 4.34315 15.8223 6V10.9673M11.2223 21H14.4223C16.6625 21 17.7826 21 18.6382 20.564C19.3909 20.1805 20.0028 19.5686 20.3863 18.816C20.8223 17.9603 20.8223 16.8402 20.8223 14.6V12.2C20.8223 11.0799 20.8223 10.5198 20.6043 10.092C20.4125 9.71569 20.1066 9.40973 19.7302 9.21799C19.3024 9 18.7424 9 17.6223 9H8.02227C6.90216 9 6.34211 9 5.91428 9.21799C5.53796 9.40973 5.232 9.71569 5.04025 10.092C4.82227 10.5198 4.82227 11.0799 4.82227 12.2V14.6C4.82227 16.8402 4.82227 17.9603 5.25824 18.816C5.64173 19.5686 6.25366 20.1805 7.0063 20.564C7.86195 21 8.98206 21 11.2223 21Z" stroke="#1C2437" stroke-width="2" stroke-linecap="round" stroke-linejoin="round"/>
</svg>
