<svg width="179" height="50" viewBox="0 0 179 50" fill="none" xmlns="http://www.w3.org/2000/svg">
<g clip-path="url(#clip0_2151_5316)">
<path d="M29.0049 3.20122C29.6403 3.20122 30.1553 2.68616 30.1553 2.0508C30.1553 1.41545 29.6403 0.900391 29.0049 0.900391C28.3696 0.900391 27.8545 1.41545 27.8545 2.0508C27.8545 2.68616 28.3696 3.20122 29.0049 3.20122Z" fill="#1E85FF"/>
<path d="M32.909 4.79644C33.7394 4.79644 34.4127 4.12322 34.4127 3.29275C34.4127 2.46229 33.7394 1.78906 32.909 1.78906C32.0785 1.78906 31.4053 2.46229 31.4053 3.29275C31.4053 4.12322 32.0785 4.79644 32.909 4.79644Z" fill="#1E85FF"/>
<path d="M37.7326 8.91641C38.9608 8.91641 39.9565 7.92077 39.9565 6.69258C39.9565 5.46439 38.9608 4.46875 37.7326 4.46875C36.5044 4.46875 35.5088 5.46439 35.5088 6.69258C35.5088 7.92077 36.5044 8.91641 37.7326 8.91641Z" fill="#1E85FF"/>
<path d="M42.0898 15.6239C43.8207 15.6239 45.224 14.2206 45.224 12.4897C45.224 10.7587 43.8207 9.35547 42.0898 9.35547C40.3588 9.35547 38.9556 10.7587 38.9556 12.4897C38.9556 14.2206 40.3588 15.6239 42.0898 15.6239Z" fill="#1E85FF"/>
<path d="M29.0049 40.0821C29.6403 40.0821 30.1553 39.567 30.1553 38.9317C30.1553 38.2963 29.6403 37.7812 29.0049 37.7812C28.3696 37.7812 27.8545 38.2963 27.8545 38.9317C27.8545 39.567 28.3696 40.0821 29.0049 40.0821Z" fill="#1E85FF"/>
<path d="M32.909 39.1949C33.7394 39.1949 34.4127 38.5217 34.4127 37.6912C34.4127 36.8607 33.7394 36.1875 32.909 36.1875C32.0785 36.1875 31.4053 36.8607 31.4053 37.6912C31.4053 38.5217 32.0785 39.1949 32.909 39.1949Z" fill="#1E85FF"/>
<path d="M37.7326 36.5141C38.9608 36.5141 39.9565 35.5184 39.9565 34.2902C39.9565 33.0621 38.9608 32.0664 37.7326 32.0664C36.5044 32.0664 35.5088 33.0621 35.5088 34.2902C35.5088 35.5184 36.5044 36.5141 37.7326 36.5141Z" fill="#1E85FF"/>
<path d="M42.0898 31.6258C43.8207 31.6258 45.224 30.2226 45.224 28.4916C45.224 26.7606 43.8207 25.3574 42.0898 25.3574C40.3588 25.3574 38.9556 26.7606 38.9556 28.4916C38.9556 30.2226 40.3588 31.6258 42.0898 31.6258Z" fill="#1E85FF"/>
<path d="M43.6749 23.9489C45.631 23.9489 47.2167 22.3632 47.2167 20.4071C47.2167 18.451 45.631 16.8652 43.6749 16.8652C41.7188 16.8652 40.1331 18.451 40.1331 20.4071C40.1331 22.3632 41.7188 23.9489 43.6749 23.9489Z" fill="#1E85FF"/>
<path d="M1.15041 21.3086C1.78577 21.3086 2.30083 20.7936 2.30083 20.1582C2.30083 19.5229 1.78577 19.0078 1.15041 19.0078C0.515058 19.0078 0 19.5229 0 20.1582C0 20.7936 0.515058 21.3086 1.15041 21.3086Z" fill="#1E85FF"/>
<path d="M2.39602 17.7535C3.22649 17.7535 3.89972 17.0803 3.89972 16.2498C3.89972 15.4193 3.22649 14.7461 2.39602 14.7461C1.56556 14.7461 0.892334 15.4193 0.892334 16.2498C0.892334 17.0803 1.56556 17.7535 2.39602 17.7535Z" fill="#1E85FF"/>
<path d="M5.79732 13.6508C7.02551 13.6508 8.02115 12.6551 8.02115 11.427C8.02115 10.1988 7.02551 9.20312 5.79732 9.20312C4.56913 9.20312 3.57349 10.1988 3.57349 11.427C3.57349 12.6551 4.56913 13.6508 5.79732 13.6508Z" fill="#1E85FF"/>
<path d="M11.5903 10.2079C13.3212 10.2079 14.7245 8.80462 14.7245 7.07365C14.7245 5.34268 13.3212 3.93945 11.5903 3.93945C9.85929 3.93945 8.45605 5.34268 8.45605 7.07365C8.45605 8.80462 9.85929 10.2079 11.5903 10.2079Z" fill="#1E85FF"/>
<path d="M38.0315 21.3086C38.6669 21.3086 39.1819 20.7936 39.1819 20.1582C39.1819 19.5229 38.6669 19.0078 38.0315 19.0078C37.3962 19.0078 36.8811 19.5229 36.8811 20.1582C36.8811 20.7936 37.3962 21.3086 38.0315 21.3086Z" fill="#1E85FF"/>
<path d="M36.7906 17.7535C37.621 17.7535 38.2942 17.0803 38.2942 16.2498C38.2942 15.4193 37.621 14.7461 36.7906 14.7461C35.9601 14.7461 35.2869 15.4193 35.2869 16.2498C35.2869 17.0803 35.9601 17.7535 36.7906 17.7535Z" fill="#1E85FF"/>
<path d="M33.3891 13.6508C34.6173 13.6508 35.613 12.6551 35.613 11.427C35.613 10.1988 34.6173 9.20312 33.3891 9.20312C32.1609 9.20312 31.1653 10.1988 31.1653 11.427C31.1653 12.6551 32.1609 13.6508 33.3891 13.6508Z" fill="#1E85FF"/>
<path d="M27.5917 10.2079C29.3227 10.2079 30.7259 8.80462 30.7259 7.07365C30.7259 5.34268 29.3227 3.93945 27.5917 3.93945C25.8607 3.93945 24.4575 5.34268 24.4575 7.07365C24.4575 8.80462 25.8607 10.2079 27.5917 10.2079Z" fill="#1E85FF"/>
<path d="M19.5072 9.03092C21.4633 9.03092 23.049 7.44519 23.049 5.48909C23.049 3.533 21.4633 1.94727 19.5072 1.94727C17.5511 1.94727 15.9653 3.533 15.9653 5.48909C15.9653 7.44519 17.5511 9.03092 19.5072 9.03092Z" fill="#1E85FF"/>
<path d="M19.1946 49.0997C19.83 49.0997 20.345 48.5846 20.345 47.9492C20.345 47.3139 19.83 46.7988 19.1946 46.7988C18.5592 46.7988 18.0442 47.3139 18.0442 47.9492C18.0442 48.5846 18.5592 49.0997 19.1946 49.0997Z" fill="#1E85FF"/>
<path d="M15.2906 48.2086C16.121 48.2086 16.7942 47.5353 16.7942 46.7049C16.7942 45.8744 16.121 45.2012 15.2906 45.2012C14.4601 45.2012 13.7869 45.8744 13.7869 46.7049C13.7869 47.5353 14.4601 48.2086 15.2906 48.2086Z" fill="#1E85FF"/>
<path d="M10.467 45.5258C11.6952 45.5258 12.6908 44.5301 12.6908 43.302C12.6908 42.0738 11.6952 41.0781 10.467 41.0781C9.23881 41.0781 8.24316 42.0738 8.24316 43.302C8.24316 44.5301 9.23881 45.5258 10.467 45.5258Z" fill="#1E85FF"/>
<path d="M6.10978 40.6434C7.84075 40.6434 9.24399 39.2402 9.24399 37.5092C9.24399 35.7782 7.84075 34.375 6.10978 34.375C4.37881 34.375 2.97559 35.7782 2.97559 37.5092C2.97559 39.2402 4.37881 40.6434 6.10978 40.6434Z" fill="#1E85FF"/>
<path d="M19.1946 12.2188C19.83 12.2188 20.345 11.7037 20.345 11.0684C20.345 10.433 19.83 9.91797 19.1946 9.91797C18.5592 9.91797 18.0442 10.433 18.0442 11.0684C18.0442 11.7037 18.5592 12.2188 19.1946 12.2188Z" fill="#1E85FF"/>
<path d="M15.2906 13.814C16.121 13.814 16.7942 13.1408 16.7942 12.3103C16.7942 11.4799 16.121 10.8066 15.2906 10.8066C14.4601 10.8066 13.7869 11.4799 13.7869 12.3103C13.7869 13.1408 14.4601 13.814 15.2906 13.814Z" fill="#1E85FF"/>
<path d="M10.467 17.934C11.6952 17.934 12.6908 16.9383 12.6908 15.7102C12.6908 14.482 11.6952 13.4863 10.467 13.4863C9.23881 13.4863 8.24316 14.482 8.24316 15.7102C8.24316 16.9383 9.23881 17.934 10.467 17.934Z" fill="#1E85FF"/>
<path d="M6.10978 24.6414C7.84075 24.6414 9.24399 23.2382 9.24399 21.5072C9.24399 19.7763 7.84075 18.373 6.10978 18.373C4.37881 18.373 2.97559 19.7763 2.97559 21.5072C2.97559 23.2382 4.37881 24.6414 6.10978 24.6414Z" fill="#1E85FF"/>
<path d="M4.52913 33.1344C6.48523 33.1344 8.07096 31.5487 8.07096 29.5926C8.07096 27.6365 6.48523 26.0508 4.52913 26.0508C2.57303 26.0508 0.987305 27.6365 0.987305 29.5926C0.987305 31.5487 2.57303 33.1344 4.52913 33.1344Z" fill="#1E85FF"/>
<path d="M47.3526 31.0235C47.9879 31.0235 48.503 30.5084 48.503 29.8731C48.503 29.2377 47.9879 28.7227 47.3526 28.7227C46.7172 28.7227 46.2021 29.2377 46.2021 29.8731C46.2021 30.5084 46.7172 31.0235 47.3526 31.0235Z" fill="#1E85FF"/>
<path d="M46.1116 35.2867C46.9421 35.2867 47.6153 34.6135 47.6153 33.783C47.6153 32.9525 46.9421 32.2793 46.1116 32.2793C45.2811 32.2793 44.6079 32.9525 44.6079 33.783C44.6079 34.6135 45.2811 35.2867 46.1116 35.2867Z" fill="#1E85FF"/>
<path d="M42.7102 40.8246C43.9384 40.8246 44.934 39.829 44.934 38.6008C44.934 37.3726 43.9384 36.377 42.7102 36.377C41.482 36.377 40.4863 37.3726 40.4863 38.6008C40.4863 39.829 41.482 40.8246 42.7102 40.8246Z" fill="#1E85FF"/>
<path d="M36.9174 46.0926C38.6484 46.0926 40.0516 44.6894 40.0516 42.9584C40.0516 41.2274 38.6484 39.8242 36.9174 39.8242C35.1864 39.8242 33.7832 41.2274 33.7832 42.9584C33.7832 44.6894 35.1864 46.0926 36.9174 46.0926Z" fill="#1E85FF"/>
<path d="M10.4761 31.0235C11.1115 31.0235 11.6265 30.5084 11.6265 29.8731C11.6265 29.2377 11.1115 28.7227 10.4761 28.7227C9.84074 28.7227 9.32568 29.2377 9.32568 29.8731C9.32568 30.5084 9.84074 31.0235 10.4761 31.0235Z" fill="#1E85FF"/>
<path d="M11.7171 35.2867C12.5475 35.2867 13.2208 34.6135 13.2208 33.783C13.2208 32.9525 12.5475 32.2793 11.7171 32.2793C10.8866 32.2793 10.2134 32.9525 10.2134 33.783C10.2134 34.6135 10.8866 35.2867 11.7171 35.2867Z" fill="#1E85FF"/>
<path d="M15.1184 40.8246C16.3466 40.8246 17.3422 39.829 17.3422 38.6008C17.3422 37.3726 16.3466 36.377 15.1184 36.377C13.8902 36.377 12.8945 37.3726 12.8945 38.6008C12.8945 39.829 13.8902 40.8246 15.1184 40.8246Z" fill="#1E85FF"/>
<path d="M20.9113 46.0926C22.6423 46.0926 24.0455 44.6894 24.0455 42.9584C24.0455 41.2274 22.6423 39.8242 20.9113 39.8242C19.1803 39.8242 17.7771 41.2274 17.7771 42.9584C17.7771 44.6894 19.1803 46.0926 20.9113 46.0926Z" fill="#1E85FF"/>
<path d="M28.9959 48.0856C30.952 48.0856 32.5378 46.4999 32.5378 44.5438C32.5378 42.5877 30.952 41.002 28.9959 41.002C27.0398 41.002 25.4541 42.5877 25.4541 44.5438C25.4541 46.4999 27.0398 48.0856 28.9959 48.0856Z" fill="#1E85FF"/>
<path d="M59.373 14.1406H64.5227C66.2801 14.1406 67.5618 14.5483 68.368 15.368C69.1742 16.1878 69.5773 17.4424 69.5773 19.1363V20.0059C69.5773 21.1246 69.3961 22.035 69.0338 22.737C68.6715 23.439 68.1189 23.9463 67.3761 24.2588V24.3222C69.07 24.902 69.9215 26.4102 69.9215 28.8514V30.7129C69.9215 32.3887 69.4822 33.666 68.6035 34.5446C67.7249 35.4233 66.4386 35.8626 64.7401 35.8626H59.373V14.1497V14.1406ZM65.655 22.4517C65.9947 22.0984 66.1668 21.5096 66.1668 20.6853V19.476C66.1668 18.6925 66.0264 18.1218 65.7501 17.7685C65.4693 17.4152 65.03 17.2431 64.4322 17.2431H62.7881V24.1547C62.7881 24.1547 65.3153 22.805 65.655 22.4562V22.4517ZM64.7401 32.7511C65.338 32.7511 65.7818 32.5925 66.0717 32.271C66.3616 31.9494 66.5065 31.3968 66.5065 30.6133V28.7201C66.5065 27.7282 66.4159 26.9446 65.9947 26.6593C64.3461 25.5315 62.7835 27.2572 62.7835 27.2572V32.7556H64.7356L64.7401 32.7511Z" fill="#1E85FF"/>
<path d="M71.3391 14.1406H76.3937C78.151 14.1406 79.4328 14.5483 80.239 15.368C81.0452 16.1878 81.4483 17.4424 81.4483 19.1363V22.4789C81.4483 24.7344 80.7055 26.1611 79.2154 26.7589V26.8224C80.0442 27.0715 80.6285 27.5787 80.9682 28.3442C81.3079 29.1096 81.48 29.9203 81.48 31.2021V33.2221C81.48 33.8426 81.5026 34.3453 81.5434 34.7258C81.5841 35.1108 81.6883 35.4867 81.8559 35.8581H78.382C78.2597 35.5048 78.1737 35.1742 78.1329 34.8662C78.0921 34.5537 78.0695 33.9966 78.0695 33.1904V31.2293C78.0695 30.2374 77.911 29.5444 77.5894 29.1504C77.2678 28.7563 76.7153 28.5616 75.9317 28.5616H74.7541V35.8581H71.3436V14.1452L71.3391 14.1406ZM75.9906 25.4545C76.6745 25.4545 77.1863 25.2779 77.526 24.9292C77.8657 24.5804 78.0378 23.9871 78.0378 23.1628V19.4805C78.0378 18.697 77.8974 18.1263 77.6211 17.773C77.3403 17.4198 76.901 17.2476 76.3031 17.2476H74.7541V25.4591H75.9951L75.9906 25.4545Z" fill="#1E85FF"/>
<path d="M87.0418 14.1406H91.6661L95.2034 35.8536H91.7929L91.1724 31.5418V31.6052H87.2954L86.6749 35.8536H83.509L87.0463 14.1406H87.0418ZM90.7648 28.6567L89.243 17.9225H89.1796L87.6895 28.6567H90.7603H90.7648Z" fill="#1E85FF"/>
<path d="M96.843 14.1406H101.123L104.443 27.1394H104.506V14.1406H107.545V35.8536H104.04L99.9455 20.0014H99.8821V35.8536H96.843V14.1406Z" fill="#1E85FF"/>
<path d="M110.091 14.1393H115.304C116.998 14.1393 118.271 14.5922 119.117 15.5026C119.964 16.4129 120.39 17.7491 120.39 19.5019V30.4851C120.39 32.2425 119.964 33.5786 119.117 34.4844C118.271 35.3948 116.998 35.8477 115.304 35.8477H110.091V14.1348V14.1393ZM115.241 32.7497C115.798 32.7497 116.228 32.5822 116.527 32.2515C116.826 31.9209 116.975 31.3819 116.975 30.6391V19.3479C116.975 18.6051 116.826 18.0661 116.527 17.7355C116.228 17.4048 115.798 17.2373 115.241 17.2373H113.501V32.7452H115.241V32.7497Z" fill="#1E85FF"/>
<path d="M122.687 14.1393H127.714C129.408 14.1393 130.681 14.5922 131.528 15.5026C132.374 16.4129 132.8 17.7491 132.8 19.5019V21.6442C132.8 23.4015 132.374 24.7376 131.528 25.6434C130.681 26.5538 126.097 29.2487 126.097 29.2487V35.8477H122.687V14.1348V14.1393ZM128.964 23.4423C129.245 23.1343 129.381 22.6043 129.381 21.8616V19.289C129.381 18.5462 129.24 18.0163 128.964 17.7083C128.683 17.3958 128.266 17.2418 127.709 17.2418H126.097V25.4487C126.097 25.4487 128.688 23.7548 128.964 23.4468V23.4423Z" fill="#1E85FF"/>
<path d="M135.835 34.753C134.965 33.8109 134.531 32.4612 134.531 30.7039V14.1406H137.941V30.953C137.941 31.6958 138.09 32.2347 138.389 32.5654C138.688 32.896 139.119 33.0636 139.676 33.0636C140.233 33.0636 140.663 32.896 140.962 32.5654C141.261 32.2347 141.41 31.6958 141.41 30.953V14.1406H144.699V30.7039C144.699 32.4612 144.264 33.8109 143.394 34.753C142.525 35.695 141.265 36.1661 139.608 36.1661C137.95 36.1661 136.691 35.695 135.821 34.753H135.835Z" fill="#1E85FF"/>
<path d="M147.126 14.1406H150.537V32.7511H156.153L154.509 35.8536H147.126V14.1406Z" fill="#1E85FF"/>
<path d="M158.481 34.7524C157.634 33.8103 157.208 32.4606 157.208 30.7033V29.4623H160.433V30.9524C160.433 32.3609 161.022 33.063 162.199 33.063C162.779 33.063 163.218 32.8909 163.517 32.5512C163.816 32.2115 163.966 31.6589 163.966 30.8935C163.966 29.9831 163.757 29.1815 163.345 28.4885C162.933 27.7955 162.167 26.9621 161.049 25.9929C159.64 24.7519 158.662 23.6287 158.1 22.6277C157.543 21.6268 157.262 20.4945 157.262 19.2308C157.262 17.5143 157.697 16.1872 158.567 15.2451C159.436 14.3031 160.695 13.832 162.353 13.832C164.011 13.832 165.22 14.3031 166.058 15.2451C166.896 16.1872 167.313 17.5369 167.313 19.2942V20.1955H164.088V19.0768C164.088 18.334 163.943 17.7905 163.653 17.4463C163.363 17.1066 162.937 16.9345 162.38 16.9345C161.244 16.9345 160.673 17.6275 160.673 19.0134C160.673 19.8015 160.886 20.5352 161.307 21.2146C161.733 21.8985 162.503 22.7228 163.617 23.6966C165.044 24.9376 166.026 26.0654 166.565 27.0799C167.104 28.0944 167.372 29.2811 167.372 30.6489C167.372 32.4289 166.932 33.7922 166.054 34.7433C165.175 35.6944 163.898 36.17 162.222 36.17C160.546 36.17 159.314 35.699 158.467 34.7569L158.481 34.7524Z" fill="#1E85FF"/>
<path d="M169.337 14.1406H178.645V17.2431H172.752V22.9816H177.436V26.0841H172.752V32.7556H178.645L177.653 35.8581H169.337V14.1452V14.1406Z" fill="#1E85FF"/>
</g>
<defs>
<clipPath id="clip0_2151_5316">
<rect width="178.645" height="48.1996" fill="white" transform="translate(0 0.900391)"/>
</clipPath>
</defs>
</svg>
